# xmcd CD database file
#
# Track frame offsets:
#	150
#	23246
#	38658
#	59460
#	81158
#	100126
#	130760
#	159794
#	181858
#	207467
#
# Disc length: 3066 seconds
#
# Revision: 0
# Processed by: cddbd v1.5.2PL0 Copyright (c) Steve Scherf et al.
# Submitted via: CDex 1.51
#
DISCID=780bf80a
DTITLE=Various Artist - BEST OF CUBAN BEATS CD3
DYEAR=2007
DGENRE=New Age
TTITLE0=Elvira Pinioliz - Bailar Muskia
TTITLE1=Mix Club West - Ausente Luna (Far Away Mix)
TTITLE2=3 Love Divas - Dance Fever (Dance Remix)
TTITLE3=La Fresca - Latin Fever (Dance Mix)
TTITLE4=Manuel Valdes - Oigame Compay
TTITLE5=Mena Solar - Mi Vada (Time To Go Mix)
TTITLE6=Rio Orchestra - Salsa Del Rios (Sunlight Mix)
TTITLE7=Coco Coral - The Wheel (Musica Dub Mix)
TTITLE8=Sylvia Mondas - Another Life (Cradle Mix)
TTITLE9=Afro Stars - Casa Grande
EXTD=YEAR: 2007
EXTT0=
EXTT1=
EXTT2=
EXTT3=
EXTT4=
EXTT5=
EXTT6=
EXTT7=
EXTT8=
EXTT9=
PLAYORDER=
